<svg xmlns="http://www.w3.org/2000/svg" viewBox="-16 -39.6 452 78.5" width="452" height="78.5"><path d="M 0 0 C 1.7 0.4 7.3 1.4 10.2 2.1 C 13.1 2.8 14.3 3.5 17.3 4.4 C 20.3 5.2 24.9 6 28 7.2 C 31 8.3 32.9 10.4 35.6 11.4 C 38.4 12.3 41.8 12.4 44.6 13.1 C 47.4 13.7 49.7 14.6 52.3 15.3 C 54.9 15.9 57.3 16.1 60.2 16.9 C 63.1 17.7 66.7 19.8 69.9 20.2 C 73.2 20.5 76.8 18.9 79.6 19 C 82.5 19.1 83.9 20.6 87.3 20.8 C 90.6 21 96.6 19.8 99.9 20.2 C 103.2 20.5 104.6 22.5 107.1 22.9 C 109.7 23.4 111.8 22.9 115.1 22.8 C 118.4 22.6 123.9 22.4 127 22.1 C 130 21.9 130.8 21.8 133.4 21.4 C 136 21 139.4 20.3 142.8 19.5 C 146.2 18.7 150.5 17.4 153.8 16.7 C 157.1 16 159.6 16.4 162.6 15.5 C 165.6 14.7 168.6 12.4 171.7 11.5 C 174.7 10.7 178.4 11.1 181.1 10.2 C 183.7 9.2 184.8 6.4 187.7 5.7 C 190.5 5 194.9 6.6 198.1 6 C 201.4 5.4 204.1 3.3 207 2 C 209.8 0.7 212.7 -1 215.2 -1.8 C 217.7 -2.6 218.9 -1.9 221.8 -2.7 C 224.8 -3.6 229.5 -5.5 232.8 -6.9 C 236.2 -8.3 239.4 -9.9 241.9 -11 C 244.5 -12 245 -12.4 248 -13.1 C 250.9 -13.7 256.8 -14.3 259.7 -15.1 C 262.7 -15.8 263.2 -17.4 265.8 -17.8 C 268.3 -18.1 271.3 -16.4 274.9 -17 C 278.4 -17.6 283.6 -20.6 287 -21.4 C 290.4 -22.3 292 -21.8 295 -22 C 298 -22.2 301.7 -22.3 304.8 -22.5 C 307.9 -22.8 310.7 -23.7 313.6 -23.6 C 316.5 -23.5 319.5 -22.8 322.1 -22.1 C 324.8 -21.5 326.7 -20.3 329.7 -19.8 C 332.7 -19.4 337 -19.6 340 -19.6 C 343.1 -19.6 344.9 -20.2 348.1 -19.8 C 351.4 -19.5 356.2 -18.3 359.6 -17.5 C 363.1 -16.7 365.9 -15.5 368.9 -15 C 372 -14.4 375.2 -14.9 377.9 -14 C 380.6 -13.1 382.7 -10.5 385.1 -9.5 C 387.4 -8.6 389.5 -8.7 392.2 -8.3 C 394.8 -7.8 397.7 -7.4 400.8 -6.6 C 404 -5.9 407.8 -4.9 411 -3.8 C 414.2 -2.7 418.5 -0.6 420 -0" fill="none" stroke="#111111" stroke-width="5" stroke-linecap="round" stroke-linejoin="round"/><path d="M 420 -0 L 389.4 6.2 L 407.9 -3.6 L 397.8 -21.9 Z" fill="#111111" stroke="#111111" stroke-width="2" stroke-linejoin="round"/></svg>